# xmcd
#
# Track frame offsets:
#	150
#	17145
#	34635
#	51135
#	69671
#	84625
#	112347
#	130886
#	150626
#	172650
#	189634
#	206245
#
# Disc length: 2966 seconds
#
# Revision: 0
# Processed by: cddbd v1.5.2PL0 Copyright (c) Steve Scherf et al.
# Submitted via: dBpowerAMP V4.0
#
DISCID=a50b940c
DTITLE=Bengt Johansson - icon
DYEAR=1900
DGENRE=Country
TTITLE0=The Image Of You
TTITLE1=Where Your Wind Blows
TTITLE2=Take Me To The Well
TTITLE3=Nineteen
TTITLE4=You Know Me
TTITLE5=Not Going Back
TTITLE6=Give You My Praise
TTITLE7=Walk By My Side
TTITLE8=Gloria (Now And Forever)
TTITLE9=The Best Of Journeys
TTITLE10=Let Your Light Shine
TTITLE11=Only In You
EXTD=
EXTT0=
EXTT1=
EXTT2=
EXTT3=
EXTT4=
EXTT5=
EXTT6=
EXTT7=
EXTT8=
EXTT9=
EXTT10=
EXTT11=
PLAYORDER=
